<?xml version="1.0" encoding="utf-8"?>
<!-- Generator: Adobe Illustrator 24.0.1, SVG Export Plug-In . SVG Version: 6.00 Build 0)  -->
<svg version="1.1" id="Layer_1" xmlns="http://www.w3.org/2000/svg" xmlns:xlink="http://www.w3.org/1999/xlink" x="0px" y="0px"
	 viewBox="0 0 477.3 477.3" style="enable-background:new 0 0 477.3 477.3;" xml:space="preserve">
<style type="text/css">
	.st0{fill:#FFFFFF;stroke:#FFFFFF;stroke-width:1.5;stroke-miterlimit:10;}
</style>
<g>
	<g>
		<g>
			<path class="st0" d="M439,46.7H89.3v3.1l-4.4-15C79.7,16.6,62.8,4,44,4H14.7C8.8,4,4,8.8,4,14.7s4.8,10.7,10.7,10.7H44
				c9.4,0,17.8,6.3,20.5,15.4l66.4,227.6l-34,42.5c-4.9,6.1-7.5,13.7-7.5,21.5c0,18.9,15.4,34.4,34.4,34.4H420
				c5.9,0,10.7-4.8,10.7-10.7s-4.8-10.7-10.7-10.7H123.7c-7.2,0-13-5.8-13-13c0-2.9,1-5.8,2.9-8.1l34.3-42.8H357
				c16.4,0,31.6-9.6,38.6-24.5L470,98.8c2.1-4.6,3.3-9.6,3.3-14.6v-3C473.3,62.1,457.9,46.7,439,46.7z M452,84
				c0,1.9-0.4,3.8-1.2,5.5l-74.4,158.2c-3.5,7.4-11.1,12.2-19.3,12.2H150.7l-56-192H439c7.2,0,13,5.8,13,13V84z"/>
			<path class="st0" d="M132,388c-23.5,0-42.7,19.1-42.7,42.7s19.1,42.7,42.7,42.7s42.7-19.1,42.7-42.7S155.5,388,132,388z M132,452
				c-11.8,0-21.3-9.6-21.3-21.3s9.6-21.3,21.3-21.3s21.3,9.6,21.3,21.3S143.8,452,132,452z"/>
			<path class="st0" d="M388,388c-23.5,0-42.7,19.1-42.7,42.7s19.1,42.7,42.7,42.7s42.7-19.1,42.7-42.7S411.5,388,388,388z M388,452
				c-11.8,0-21.3-9.6-21.3-21.3s9.6-21.3,21.3-21.3s21.3,9.6,21.3,21.3S399.8,452,388,452z"/>
		</g>
	</g>
</g>
</svg>
