<?xml version="1.0" encoding="iso-8859-1"?>
<!-- Generator: Adobe Illustrator 19.0.0, SVG Export Plug-In . SVG Version: 6.00 Build 0)  -->
<svg version="1.1" id="Capa_1" xmlns="http://www.w3.org/2000/svg" xmlns:xlink="http://www.w3.org/1999/xlink" x="0px" y="0px"
	 viewBox="0 0 511.999 511.999" style="enable-background:new 0 0 511.999 511.999;" xml:space="preserve">
<g>
	<g>
		<path d="M271.158,231.977c-4.143,0-7.5,3.357-7.5,7.5v8.656c0,4.2-3.418,7.618-7.619,7.618c-4.2,0-7.618-3.418-7.618-7.618v-8.656
			c0-4.143-3.357-7.5-7.5-7.5c-4.143,0-7.5,3.357-7.5,7.5v8.656c0,12.471,10.146,22.619,22.619,22.619
			c12.473,0,22.62-10.146,22.62-22.619v-8.656C278.658,235.334,275.301,231.977,271.158,231.977z"/>
	</g>
</g>
<g>
	<g>
		<path d="M316.216,201.935c-13.266,0-24.06,10.793-24.06,24.06s10.793,24.059,24.06,24.059c13.266,0,24.059-10.792,24.059-24.059
			S329.483,201.935,316.216,201.935z M316.216,235.052c-4.995,0-9.059-4.063-9.059-9.058s4.063-9.059,9.059-9.059
			c4.994,0,9.058,4.063,9.058,9.059C325.274,230.989,321.211,235.052,316.216,235.052z"/>
	</g>
</g>
<g>
	<g>
		<path d="M195.86,201.935c-13.266,0-24.059,10.793-24.059,24.06s10.792,24.059,24.059,24.059s24.059-10.792,24.059-24.059
			S209.126,201.935,195.86,201.935z M195.86,235.052c-4.994,0-9.058-4.063-9.058-9.058s4.063-9.059,9.058-9.059
			s9.058,4.063,9.058,9.059C204.918,230.989,200.854,235.052,195.86,235.052z"/>
	</g>
</g>
<g>
	<g>
		<path d="M346.33,187.614c-17.421-14.583-42.831-14.563-60.23-0.001c-3.177,2.659-3.597,7.389-0.938,10.565
			c2.669,3.186,7.398,3.589,10.566,0.939c11.849-9.917,29.141-9.906,40.975-0.001c3.174,2.66,7.906,2.239,10.564-0.938
			C349.927,195.003,349.507,190.273,346.33,187.614z"/>
	</g>
</g>
<g>
	<g>
		<path d="M225.977,187.613c-17.422-14.581-42.833-14.563-60.23,0.001c-3.177,2.658-3.597,7.389-0.938,10.564
			c2.657,3.177,7.39,3.598,10.564,0.938c11.849-9.918,29.14-9.903,40.975,0.001c1.404,1.175,3.111,1.748,4.81,1.748
			c2.144,0,4.272-0.914,5.756-2.687C229.573,195.002,229.153,190.273,225.977,187.613z"/>
	</g>
</g>
<g>
	<g>
		<g>
			<path d="M430.502,417.337c-7.69-5.318-18.606-12.804-32.004-21.841c6.795-16.142,12.985-33.076,18.398-50.373
				c1.237-3.953-0.964-8.161-4.917-9.398c-3.959-1.232-8.162,0.965-9.397,4.918c-4.969,15.88-10.611,31.438-16.781,46.328
				c-16.051-10.73-34.763-23.066-55.237-36.242c19.687-19.975,73.094-78.28,91.772-98.807c-2.235,17.652-5.77,36.469-10.452,55.451
				c-0.991,4.021,1.465,8.086,5.486,9.078c4.037,0.993,8.089-1.478,9.078-5.486c6.689-27.125,11.118-53.996,12.844-77.838
				l7.559-8.295c2.887-3.194,4.289-7.701,3.949-12.688c-0.478-7.033-4.212-14.06-11.203-18.251
				c-3.434-53.614-23.517-102.484-56.784-137.944c-69.161-73.719-178.901-73.621-248.243-5.423
				c-2.953,2.905-2.993,7.653-0.089,10.606c2.906,2.954,7.654,2.992,10.606,0.089c30.298-29.798,69.699-46.208,110.948-46.208
				c85.293,0,159.603,69.818,168.277,175.543c-10.428,1.242-13.529,7.701-31.968,21.439l-0.004-20.633
				c1.248,0.243,8.085,1.587,9.33,1.587c3.59,0,6.763-2.585,7.385-6.242c0.695-4.084-2.052-7.957-6.135-8.652
				c-48.386-8.237-95.77-27.696-137.837-58.194c-36.726-26.778-36.221-36.62-45.615-35.503c-3.061,0.361-5.79,2.181-7.303,4.869
				c-6.986,12.425-33.67,53.577-83.729,61.445c-4.184,0.661-8.623,5.088-8.682,10.912c-0.034,4.542-0.013,24.036-0.027,50.181
				c-19.008-14.112-21.161-19.998-31.982-21.19c3.147-38.58,15.449-74.323,35.677-103.556c2.357-3.406,1.507-8.078-1.899-10.435
				c-3.406-2.358-8.079-1.507-10.435,1.899c-22.352,32.299-35.685,71.865-38.562,114.42c-0.014,0.207-0.013,0.411-0.01,0.614
				c-12.892,6.934-14.225,23.329-6.987,31.336l7.546,8.28c-1.237,5.862,6.262,81.124,40.559,162.514
				c-12.965,8.745-23.746,16.137-31.777,21.69c-12.742,8.809-20.35,23.139-20.35,38.332v29.084
				c0,15.023,12.541,27.245,27.956,27.245c4.391,0,110.82,0,117.662,0c4.143,0,7.5-3.357,7.5-7.5c0-4.143-3.357-7.5-7.5-7.5h-40.305
				c22.217-17.504,42.958-34.72,62.084-51.246c8.818,7.192,15.604,12.413,27.128,12.413c11.589,0,18.425-5.297,27.317-12.566
				c20.487,17.718,41.278,34.9,62.21,51.399H242.13c-4.143,0-7.5,3.357-7.5,7.5c0,4.143,3.357,7.5,7.5,7.5
				c15.555,0,159.173,0,180.764,0c15.415,0,27.956-12.222,27.956-27.245v-29.083C450.851,440.474,443.245,426.145,430.502,417.337z
				 M422.879,206.666c2.404-1.764,6.876-1.872,10.289,1c2.538,2.138,3.054,6.08,2.498,7.168l-10.951,12.018
				c-3.52-4.851-9.043-8.368-14.531-9.963L422.879,206.666z M400.223,231.51c-0.003,0.002-0.007,0.005-0.012,0.008
				C400.216,231.515,400.219,231.513,400.223,231.51z M400.08,231.606c-0.004,0.003-0.008,0.005-0.012,0.008
				C400.071,231.612,400.075,231.609,400.08,231.606z M400.033,231.637c0.002-0.001,0.004-0.003,0.007-0.005
				c0.024-0.016,0.047-0.031,0.066-0.044c0.031-0.021,0.07-0.047,0.125-0.083c4.469-2.654,13.977,2.848,13.507,7.39
				c-0.009,0.01-0.016,0.017-0.024,0.026c-0.002,0.002-0.005,0.006-0.007,0.008c0.002-0.002,0.003-0.003,0.004-0.005
				c-0.004,0.004-0.008,0.008-0.011,0.013c-0.006,0.006-0.012,0.013-0.019,0.02c-0.005,0.005-0.009,0.01-0.014,0.016
				c-0.012,0.013-0.023,0.026-0.032,0.036c0.006-0.006,0.011-0.013,0.017-0.019c-0.851,0.932-8.126,8.902-55.304,60.589
				c-11.92-5.942-18.511-16.095-22.582-25.024C389.216,238.861,398.67,232.547,400.033,231.637z M413.743,238.89
				C413.754,238.879,413.755,238.878,413.743,238.89L413.743,238.89z M413.741,238.892c-0.006,0.006-0.014,0.016-0.027,0.029
				C413.725,238.91,413.735,238.899,413.741,238.892z M413.594,239.053c0.002-0.002,0.005-0.005,0.009-0.009
				C413.599,239.048,413.596,239.051,413.594,239.053z M134.741,164.796c47.614-9.129,75.565-44.448,86.808-62.073
				c34.377,35.375,93.516,70.276,155.791,85.366l0.008,35.981l-35.175,28.325l-7.959,5.34l-11.673,7.479
				c-22.484,12.731-44.806,25.899-66.36,38.978c-22.934-13.914-45.24-27.022-66.351-38.976l-11.676-7.481l-7.959-5.34
				l-35.461-28.556c0.008-50.478,0.009-58.025,0.009-58.847C134.741,165.097,134.741,165.21,134.741,164.796z M241.757,312.997
				c-15.772,9.692-32.322,20.074-47.018,29.44c-12.581-12.698-22.725-23.364-30.27-31.48c13.517-8.052,21.005-20.036,25.1-28.629
				C206.354,291.915,223.841,302.192,241.757,312.997z M176.595,274.555c-4.072,8.928-10.661,19.082-22.581,25.024
				c-46.186-50.599-54.126-59.298-55.238-60.516c0.001,0.002-0.004-0.005-0.02-0.022c0.009,0.01,0.016,0.017,0.018,0.02
				c-0.01-0.011-0.021-0.023-0.03-0.032c-0.016-0.018-0.039-0.043-0.072-0.078c0.023,0.025,0.048,0.052,0.068,0.074
				c-0.061-0.067-0.097-0.107-0.114-0.125c-0.561-4.326,8.876-10.145,13.503-7.394C114.099,232.819,99.067,222.781,176.595,274.555z
				 M98.63,238.902c-0.001-0.001-0.002-0.002-0.003-0.003l0,0C98.628,238.9,98.629,238.901,98.63,238.902z M98.626,238.898
				C98.609,238.879,98.612,238.883,98.626,238.898L98.626,238.898z M76.644,214.776c-0.774-0.938-0.838-5.099,1.551-7.109
				c3.492-2.941,9.115-2.66,11.242-1.038l12.739,10.258c-5.491,1.597-11.012,5.118-14.53,9.964L76.644,214.776z M89.674,251.536
				c27.355,29.87,63.868,70.513,92.154,99.177c-20.569,13.236-39.328,25.599-55.497,36.409
				C108.073,343.11,95.068,294.836,89.674,251.536z M142.417,496.997h-52.95c-7.144,0-12.955-5.493-12.955-12.244v-29.084
				c0-10.269,5.188-19.986,13.88-25.994c71.51-49.442,156.281-103.871,232.401-147.347c4.094,8.593,11.579,20.576,25.097,28.627
				C319.317,341.645,244.716,418.228,142.417,496.997z M266.116,439.934c-6.029,4.308-14.131,4.307-20.16,0
				c-1.848-1.32-3.707-2.719-5.567-4.187c5.417-4.76,10.693-9.454,15.824-14.072c6.189,5.57,13.677,12.187,15.656,13.927
				C269.948,437.123,268.026,438.569,266.116,439.934z M435.85,484.753c0,6.751-5.812,12.244-12.955,12.244h-52.95
				c-34.534-26.59-68.92-55.231-102.564-85.456c19.966-18.273,37.496-35.147,52.358-49.939
				c46.116,29.621,83.623,55.206,102.232,68.072h0.001c8.689,6.008,13.878,15.727,13.878,25.995V484.753z"/>
			<path d="M98.746,239.029c0.004,0.004,0.008,0.009,0.011,0.012c-0.005-0.005-0.01-0.011-0.015-0.017
				C98.743,239.026,98.744,239.027,98.746,239.029z"/>
			<polygon points="413.7,238.938 413.707,238.93 413.697,238.94 			"/>
			<path d="M413.652,238.99c0.005-0.005,0.011-0.012,0.015-0.016c0.003-0.003,0.005-0.005,0.008-0.009
				C413.667,238.974,413.659,238.982,413.652,238.99z"/>
			<path d="M413.675,238.965c0.002-0.002,0.004-0.005,0.006-0.007c0.006-0.006,0.011-0.012,0.016-0.018
				C413.69,238.948,413.681,238.958,413.675,238.965z"/>
		</g>
	</g>
</g>
<g>
</g>
<g>
</g>
<g>
</g>
<g>
</g>
<g>
</g>
<g>
</g>
<g>
</g>
<g>
</g>
<g>
</g>
<g>
</g>
<g>
</g>
<g>
</g>
<g>
</g>
<g>
</g>
<g>
</g>
</svg>
