<svg height="512" viewBox="0 0 512 512" width="512" xmlns="http://www.w3.org/2000/svg"><path d="m424 96h-336a8 8 0 0 0 -8 8v176a8 8 0 0 0 8 8h104v176a8 8 0 0 0 8 8h112a8 8 0 0 0 8-8v-56a8 8 0 0 0 -8-8h-8v-53.706l36.434-58.294h83.566a8 8 0 0 0 8-8v-176a8 8 0 0 0 -8-8zm-120 360h-96v-40h96zm-14.784-116.24a8 8 0 0 0 -1.216 4.24v56h-80v-112h20.575a7.995 7.995 0 0 0 12.868 1.3l48.525-54.254a9.127 9.127 0 0 1 15.5 8.977 7.979 7.979 0 0 0 -.66 1.471 9.249 9.249 0 0 1 -.964 1.4l-29.989 35.986a8 8 0 0 0 -1.855 5.12v11.509a33.919 33.919 0 0 1 -21.425 31.644 8 8 0 1 0 5.943 14.856 49.843 49.843 0 0 0 31.482-46.5v-8.609l2.414-2.9h31.152zm25.384-116.475a25.105 25.105 0 0 0 -28.56-4.915 40 40 0 1 0 -9.963 8.2l-12.008 13.43h-106.813a80.622 80.622 0 0 0 -29.256-29.257v-37.486a80.622 80.622 0 0 0 29.256-29.257h197.488a80.622 80.622 0 0 0 29.256 29.257v37.486a80.622 80.622 0 0 0 -29.256 29.257h-32.769a25.055 25.055 0 0 0 -7.375-16.715zm-58.6-7.285a24 24 0 1 1 24-24 24.028 24.028 0 0 1 -24 24zm160 56h-112.253l12.387-14.865c.307-.368.577-.755.859-1.135h42.527a8 8 0 0 0 7.155-4.422 62.926 62.926 0 0 1 12.06-16.76c.028-.027.056-.055.083-.083a62.949 62.949 0 0 1 16.76-12.06 8 8 0 0 0 4.422-7.155v-47.04a8 8 0 0 0 -4.422-7.155 62.949 62.949 0 0 1 -16.76-12.06c-.027-.028-.055-.056-.083-.083a62.926 62.926 0 0 1 -12.06-16.76 8 8 0 0 0 -7.155-4.422h-207.04a8 8 0 0 0 -7.155 4.422 62.926 62.926 0 0 1 -12.06 16.76l-.083.083a62.949 62.949 0 0 1 -16.76 12.06 8 8 0 0 0 -4.422 7.155v47.04a8 8 0 0 0 4.422 7.155 62.949 62.949 0 0 1 16.76 12.06l.083.083a62.926 62.926 0 0 1 12.06 16.76 8 8 0 0 0 7.155 4.422h97.278l-14.31 16h-139.448v-160h320z"/><path d="m168 184h16v16h-16z"/><path d="m328 184h16v16h-16z"/><path d="m480 64h16v16h-16z"/><path d="m432 64h16v16h-16z"/><path d="m456 40h16v16h-16z"/><path d="m456 88h16v16h-16z"/><path d="m64 312h16v16h-16z"/><path d="m16 312h16v16h-16z"/><path d="m40 288h16v16h-16z"/><path d="m40 336h16v16h-16z"/></svg>