<svg id="Capa_1" enable-background="new 0 0 480.004 480.004" height="512" viewBox="0 0 480.004 480.004" width="512" xmlns="http://www.w3.org/2000/svg"><path d="m460.532 296.424-41.344-60.706c-1.489-2.189-3.965-3.5-6.613-3.5h-60.571v-63.99c0-4.418-3.582-8-8-8h-95.865c-.045 0-.089-.007-.135-.007h-40.29c-4.294-57.276-54.208-100.227-111.484-95.933-57.277 4.294-100.228 54.207-95.934 111.484 3.84 51.22 44.497 91.965 95.708 95.917v16.538h-40c-4.418 0-8 3.582-8 8s3.582 8 8 8h40v16h-80c-4.418 0-8 3.582-8 8s3.582 8 8 8h80v16h-40c-4.418 0-8 3.582-8 8s3.582 8 8 8h40v8.007c0 4.418 3.582 8 8 8h32.858c4.551 21.618 25.765 35.453 47.382 30.902 15.514-3.266 27.635-15.387 30.902-30.902l153.663-.245c4.41 21.647 25.533 35.62 47.179 31.211 15.721-3.203 28.008-15.489 31.211-31.211h24.805c4.418 0 8-3.582 8-8v-56c-.017-11.502-8.18-21.38-19.472-23.565zm-252.528-120.196h32v47.993h-32zm-192-8.24c0-48.601 39.399-88 88-88s88 39.399 88 88-39.399 88-88 88c-48.578-.055-87.945-39.421-88-88zm120.762 200.24h-24.762v-16h31.845c-3.518 4.743-5.938 10.208-7.083 16zm39.238 31.76c-13.255-.014-23.989-10.77-23.976-24.024.012-11.938 8.796-22.052 20.615-23.736h6.722c13.122 1.87 22.244 14.023 20.375 27.145-1.685 11.819-11.799 20.603-23.736 20.615zm160-31.76h-120.762c-1.146-5.793-3.565-11.258-7.083-16h127.845zm0-32.24h-224v-64.3c32.807-2.559 62.472-20.481 80-48.332v8.87c0 4.418 3.582 8 8 8h48c4.418 0 8-3.582 8-8v-55.998h80zm16-87.767h56.341l32.553 47.8-88.894.184zm56 151.767c-13.255 0-24-10.745-24-24s10.745-24 24-24 24 10.745 24 24c-.016 13.249-10.752 23.985-24 24zm56-63.767h-16v16h16v15.767h-16.8c-4.41-21.647-25.533-35.62-47.179-31.211-15.721 3.203-28.008 15.489-31.211 31.211h-16.81v-55.777l103.393-.223h.607c4.416.005 7.995 3.584 8 8z"/><path d="m104.004 95.988c-4.418 0-8 3.582-8 8v59.493l-36.146 21.9c-3.798 2.258-5.046 7.167-2.788 10.965s7.167 5.046 10.965 2.788c.039-.023.077-.046.116-.07l40-24.233c2.393-1.45 3.854-4.045 3.854-6.843v-64c-.001-4.418-3.583-8-8.001-8z"/><path d="m248.004 256.221h-48c-4.418 0-8 3.582-8 8s3.582 8 8 8h48c4.418 0 8-3.582 8-8s-3.582-8-8-8z"/></svg>