<?xml version="1.0" encoding="utf-8"?>
<!-- Generator: Adobe Illustrator 24.0.1, SVG Export Plug-In . SVG Version: 6.00 Build 0)  -->
<svg version="1.1" id="Capa_1" xmlns="http://www.w3.org/2000/svg" xmlns:xlink="http://www.w3.org/1999/xlink" x="0px" y="0px"
	 viewBox="0 0 488 488" style="enable-background:new 0 0 488 488;" xml:space="preserve">
<style type="text/css">
	.st0{fill:#FFFFFF;stroke:#FFFFFF;stroke-width:2;stroke-miterlimit:10;}
</style>
<path class="st0" d="M244,4C111.5,4,4,111.5,4,244s107.5,240,240,240c7.2,0,14.4-0.3,21.6-1c6.7-0.6,13.3-1.5,19.8-2.7l2.5-0.4
	c121.9-22.7,206.4-134.6,195-258S368,4,244,4z M224.7,467.2h-0.6c-6.2-0.6-12.4-1.4-18.5-2.4c-0.4-0.1-0.7-0.1-1-0.2
	c-6-1.1-11.9-2.4-17.8-3.9l-1.4-0.4c-5.7-1.6-11.4-3.4-16.9-5.4c-0.6-0.2-1.2-0.4-1.7-0.6c-5.5-2-10.8-4.3-16.1-6.7
	c-0.7-0.3-1.3-0.6-2-0.9c-5.2-2.4-10.3-5.1-15.2-7.9c-0.7-0.4-1.4-0.8-2.1-1.2c-4.9-2.9-9.7-5.9-14.4-9.2c-0.7-0.5-1.4-1-2.1-1.5
	c-4.6-3.3-9.1-6.8-13.5-10.4l-1.2-1.1V348c0.1-48.6,39.4-87.9,88-88h112c48.6,0.1,87.9,39.4,88,88v67.5l-1.1,0.9
	c-4.5,3.7-9.1,7.3-13.8,10.6c-0.6,0.4-1.3,0.9-1.9,1.3c-4.8,3.3-9.6,6.4-14.6,9.3c-0.6,0.4-1.3,0.7-1.9,1.1
	c-5.1,2.9-10.2,5.6-15.4,8c-0.6,0.3-1.2,0.5-1.8,0.8c-5.3,2.5-10.7,4.7-16.2,6.7c-0.5,0.2-1.1,0.4-1.6,0.6c-5.6,2-11.3,3.8-17,5.4
	l-1.4,0.3c-5.9,1.6-11.8,2.9-17.8,4c-0.3,0.1-0.7,0.1-1,0.2c-6.1,1.1-12.3,1.9-18.5,2.5h-0.6c-6.4,0.6-12.8,0.8-19.3,0.8
	S231.1,467.7,224.7,467.2z M404,400.6V348c-0.1-57.4-46.6-103.9-104-104H188c-57.4,0.1-103.9,46.6-104,104v52.6
	C-2.2,312.7-1.2,171.7,86.1,84.9c87.4-86.8,228.4-86.8,315.7,0C489.2,171.7,490.2,312.7,404,400.6L404,400.6z"/>
<path class="st0" d="M244,68c-44.2,0-80,35.8-80,80s35.8,80,80,80s80-35.8,80-80S288.2,68,244,68z M244,212c-35.3,0-64-28.7-64-64
	s28.7-64,64-64s64,28.7,64,64S279.3,212,244,212z"/>
</svg>
