<?xml version="1.0" encoding="utf-8"?>
<!-- Generator: Adobe Illustrator 24.0.1, SVG Export Plug-In . SVG Version: 6.00 Build 0)  -->
<svg version="1.1" id="Capa_1" xmlns="http://www.w3.org/2000/svg" xmlns:xlink="http://www.w3.org/1999/xlink" x="0px" y="0px"
	 viewBox="0 0 145.2 182" style="enable-background:new 0 0 145.2 182;" xml:space="preserve">
<style type="text/css">
	.st0{fill:#F2B038;}
	.st1{fill:#FFFFFF;}
	.st2{fill:#F27E88;}
</style>
<title>vector_header-01</title>
<g>
	<path class="st0" d="M59.6,10.1C51.2,16.5,48.5,28,48.4,38.5c0,7.4,1.1,15.1,4.9,21.5c3.9,6.4,10.9,11.2,18.3,10.8
		C67,64.2,65.2,55.6,67,47.6c1.4-6.2,4.7-11.8,6.6-17.9c2.4-7.4,2.6-15.5,0.6-23.1c6.3,7.3,6.9,18.3,3.8,27.4
		c-1.6,4.9-4.2,9.5-5.7,14.5c-2,6.7-2,14,0,20.7c0.1,0.5,0.3,1,0.7,1.3c0.5,0.4,1.2,0.5,1.8,0.5c7-0.1,13.4-4.5,17.2-10.4
		c3.8-5.8,5.3-12.9,5.7-19.9c0.3-5.9,0-11.8-1.8-17.4c-1.8-5.6-5.2-10.7-10-14.1c-3.7-2.5-8.2-3.8-12.6-3.8
		C68.4,5.6,63.5,7.1,59.6,10.1"/>
	<path class="st0" d="M25.5,62c-10,2.7-17,13.6-15.5,23.8c0.7,4.4,2.7,8.5,5.2,12.3c3.1,4.7,7,8.8,11.4,12.3
		c4.9,3.9,10.5,6.9,16.6,8c6.1,1,12.8-0.3,17.6-4.2c0.4-0.3,0.7-0.6,0.9-1.1c0.2-0.5,0-1.1-0.2-1.6c-2.5-6.8-8.8-11.6-15.3-14.9
		c-6.5-3.4-13.5-5.8-19.4-10c-5.9-4.2-10.8-11-10.3-18.2c3.4,6.2,8.5,11.3,14.6,14.8c6.2,3.6,13.4,5.4,19.3,9.4
		c6.5,4.4,11.2,11.4,12.8,19.1c5.4-4.7,6.9-12.7,5.1-19.6c-1.7-6.9-6.2-12.8-11.2-17.8c-4.2-4.2-8.9-8-14.3-10.4
		c-3.6-1.6-7.6-2.5-11.5-2.5C29.4,61.2,27.4,61.5,25.5,62"/>
	<path class="st0" d="M109.7,62.1c-6.6,1.2-12.6,4.9-17.9,9.1c-6.1,5-11.7,11.1-14.3,18.6c-2.6,7.5-1.6,16.5,3.8,22.2
		c1.9-8.1,7.2-15.3,14.2-19.7c5.8-3.6,12.6-5.3,18.5-8.6c6.2-3.4,11.4-8.6,14.9-14.8c0.3-0.5-0.1-1.1-0.5-1.6
		c-3.7-3.8-9-5.6-14.4-5.6C112.6,61.7,111.1,61.8,109.7,62.1"/>
	<path class="st0" d="M116.7,88.3c-6.9,4.6-15.4,6.3-22.4,10.8c-5.2,3.3-9.3,8.2-11.9,13.8c4,4.4,10.2,6.4,16.2,6
		c5.9-0.3,11.6-2.8,16.6-6.1c5.4-3.5,10.1-8.1,13.8-13.3c3.2-4.5,5.8-9.7,6.3-15.3c0.5-5.6-1.2-11.5-5.3-15.2
		C128.3,76.7,123.4,83.8,116.7,88.3"/>
	<path class="st1" d="M66,122.3c-0.2,0.2-0.2,0.6-0.2,0.9c0,1.7,0,3.4,0,5.1c0,0.6,0.8,0.9,1.3,0.6c0.5-0.3,0.6-1,0.6-1.6
		c0-0.6-0.2-1.2-0.2-1.8c0-0.8,0.4-1.6,0.2-2.4c-0.1-0.6-0.7-1-1.2-1C66.3,122.1,66.1,122.2,66,122.3"/>
	<path class="st1" d="M55.7,126.9c-0.4,0.1-0.6,0.7-0.4,1.1c0.1,0.4,0.5,0.7,0.8,1c0.8,0.7,1.7,1.4,2.5,2.1c0.4,0.3,0.9,0.7,1.4,0.8
		c0.5,0.1,1.2-0.1,1.4-0.6c-1.4-1.6-3.1-2.9-4.8-4.1c-0.2-0.2-0.5-0.3-0.7-0.3C55.8,126.9,55.8,126.9,55.7,126.9"/>
	<path class="st1" d="M77.6,126.9c-0.6,0-1.1,0.4-1.5,0.8c-1,0.8-2.1,1.7-3.1,2.5c-0.4,0.3-0.9,0.9-0.7,1.4c0.3,0.7,1.4,0.3,2-0.2
		c1.5-1.2,2.9-2.3,4.4-3.5C78.8,127.4,78.2,126.9,77.6,126.9C77.6,126.9,77.6,126.9,77.6,126.9"/>
	<path class="st1" d="M62.6,133.4c-0.5,1.1-0.5,2.3-0.5,3.4c-0.1,4.6-0.2,9.2-0.3,13.8c-1.7-0.9-3.1-2.3-4.8-3.2
		c-1.7-0.8-4.1-1-5.3,0.5c-1.7,1.9-0.3,4.9,1,7c2.2,3.4,4.4,6.8,6.6,10.2c2.5,3.9,5.1,7.8,8.9,10.4c6.8,4.6,17.3,2.9,21.8-4
		c2.9-4.5,3.2-10.2,3.1-15.5c-0.1-2.1-0.2-4.3-1.5-6c-1.3-1.6-4.1-2.2-5.4-0.6c-0.5-2.8-3.6-4.8-6.3-4.1c-1.5,0.4-2.8-0.7-4.1-1.5
		c-1.3-0.8-3.3-1-4,0.4c-1.7-3.7,0.9-8.9-1.8-12c-0.8-0.9-2-1.3-3.2-1.3C65,130.9,63.3,131.8,62.6,133.4 M63.9,137.2
		c0-2,0.5-4.5,2.5-4.7c2.1-0.2,2.9,2.8,2.9,4.9c0,5.6,0,11.2,0,16.8c1.5-0.2,2-2.1,2-3.6c-0.1-1.5-0.4-3.2,0.4-4.4
		c1.1-1.6,3.9-1.2,4.6,0.5c0.4,1,0.1,2.2,0.2,3.3c0,1.1,0.7,2.4,1.9,2.4c-0.2-1.5-0.2-3,0.6-4.3c0.8-1.2,2.7-1.8,3.8-0.8
		c1.8,1.5,0.1,4.9,1.7,6.6c1.4-0.5,1.5-2.7,2.9-3.4c1.1-0.6,2.6,0.1,3.2,1.1c0.7,1.1,0.7,2.4,0.7,3.7c0.1,5.5-0.1,11.4-3.4,15.9
		c-4.2,5.6-12.9,6.9-18.7,3c-3.2-2.2-5.5-5.5-7.6-8.8c-2.7-4.2-5.5-8.5-8.1-12.7c-0.7-1.1-1.3-2.4-0.6-3.5c1-1.4,3.2-0.5,4.6,0.6
		c2.1,1.6,4.3,3.3,6.4,4.9C63.9,148.9,63.9,143,63.9,137.2"/>
	<path class="st1" d="M58,137.2c-1.3,0.3-2.7,0.5-4,0.8c-0.5,0.1-1.1,0.2-1.4,0.6c-0.4,0.4-0.3,1.1,0.1,1.3c0.2,0.1,0.5,0,0.8,0
		c1.9-0.4,3.7-0.9,5.6-1.3c0.3-0.1,0.5-0.1,0.7-0.3c0.3-0.3,0-0.9-0.4-1.1c-0.2-0.1-0.4-0.1-0.5-0.1C58.5,137.1,58.2,137.2,58,137.2
		"/>
	<path class="st1" d="M74.5,137.3c-0.4,0.2-0.7,0.8-0.5,1.1c0.1,0.2,0.4,0.3,0.6,0.3c2,0.6,4.1,1,6.2,1.3c0.3-0.4,0.1-1.1-0.3-1.4
		c-0.4-0.3-0.9-0.5-1.4-0.6c-1.1-0.2-2.2-0.5-3.2-0.7c-0.3-0.1-0.6-0.1-0.9-0.1C74.9,137.2,74.7,137.2,74.5,137.3"/>
	<path class="st2" d="M79,7.2c1.2,1.8,2.3,3.6,3.5,5.5c0.1,0.2,0.2,0.4,0.3,0.5c1-0.2,1.9-0.5,2.9-0.8c1.6-0.5,3.3,0.6,3.8,2.1
		c0.2,0.8,0.1,1.7-0.3,2.4c-0.4,0.7-1.1,1.1-1.8,1.4c-0.3,0.1-0.6,0.2-0.9,0.3c0,0.1,0.1,0.1,0.1,0.2c1.1,1.4,2.3,2.7,3.7,3.8
		c1.3,1,2.8,1.8,4.2,2.7c1.4,0.8,1.9,2.7,1.1,4.2c-0.8,1.4-2.7,1.9-4.2,1.1c-1.5-0.9-2.9-1.7-4.3-2.7c-0.6-0.4-1.2-0.9-1.7-1.4
		c0,0.1,0,0.2,0,0.3c0.3,1.4,0.2,3.2-1,4.2c-0.2,0.2-0.4,0.3-0.6,0.5c0.2,0.2,0.4,0.3,0.5,0.5c1.2,1.1,1.2,3.2,0,4.3
		c-1.2,1.2-3.1,1.1-4.3,0c-0.7-0.6-1.3-1.2-1.9-1.9c-1.6,4.9-4.2,9.5-5.7,14.4c-2,6.5-2,13.5-0.2,20c0.2-0.2,0.4-0.3,0.7-0.4
		c0.4-0.2,0.8-0.4,1.2-0.6c0.5-0.2,1-0.5,1.4-0.7c0.9-0.4,1.7-0.9,2.5-1.5c1.4-1,2.8-2.1,4.2-3.2c1-0.8,1.9-1.6,2.8-2.4
		c0.8-0.7,1.6-1.5,2.3-2.3c1.7-1.8,3.4-3.5,4.9-5.3c0.3-0.4,0.6-0.8,0.8-1.2c0.5-0.7,0.9-1.4,1.3-2.1c0.8-1.4,1.6-2.8,2.4-4.2
		c0.2-0.4,0.5-0.8,0.7-1.2c0.1-0.9,0.2-1.8,0.2-2.7c0.3-5.8,0-11.8-1.8-17.4c-1.8-5.6-5.2-10.7-10-14.1c-2.2-1.5-4.6-2.6-7.2-3.2
		C78.8,6.5,78.9,6.9,79,7.2"/>
	<path class="st2" d="M59.6,10.1C51.2,16.5,48.5,28,48.4,38.5c0,7.4,1.1,15.1,4.9,21.5c3.6,5.9,9.9,10.5,16.8,10.8
		c0.1-0.4,0.4-0.8,0.7-1.1c0,0,0,0,0.1,0c-4.1-6.5-5.6-14.6-4-22.1c1.4-6.2,4.7-11.8,6.6-17.9c0-0.1,0.1-0.3,0.1-0.4
		c-0.1-0.2-0.3-0.4-0.4-0.6c-0.5-0.7-0.9-1.4-1.3-2.1c-0.4-0.8-0.8-1.7-1.1-2.5c-0.4-1-0.8-2.1-1.2-3.2c-0.4-1.2-0.8-2.3-1.2-3.5
		c-0.7-2.5-1.4-4.9-1.9-7.4c-0.2-0.9-0.4-1.9-0.6-2.8c-0.1-0.1-0.2-0.2-0.2-0.3C63.5,7.6,61.4,8.7,59.6,10.1"/>
	<path class="st2" d="M92.2,52.3C92.2,52.2,92.2,52.2,92.2,52.3C92.2,52.2,92.2,52.2,92.2,52.3"/>
	<path class="st2" d="M88.1,65.2c-0.5,0.4-1.1,0.9-1.6,1.3c-0.7,0.5-1.4,1.1-2,1.6c1.8-1.1,3.5-2.5,5-4.1
		C89,64.5,88.6,64.9,88.1,65.2"/>
	<path class="st2" d="M25.5,62c-1,0.3-2,0.6-2.9,1.1c0,0.1,0.1,0.1,0.1,0.2c0.8,1.3,1.7,2.6,2.5,3.9c0.6,0.8,1.2,1.5,1.9,2.2
		c0.7,0.7,1.3,1.4,2,2.1c1.3,1.3,2.8,2.5,4.2,3.6c1,0.7,2,1.4,3,2.1c1.3,0.9,2.6,1.8,4.1,2.5c0.8,0.3,1.7,0.7,2.6,0.9
		c1,0.3,2.1,0.6,3.1,0.8c2.5,0.6,4.9,1.7,7.2,2.9c1.1,0.6,2.2,1.3,3.2,1.9c1.1,0.7,2.1,1.4,3.1,2.1c0.7,0.5,1.4,1,2,1.5
		c0.4,0.4,0.8,0.8,1.2,1.2c1.1,1.2,2.1,2.6,2.9,4.1c0.4,0.8,0.7,1.6,1.1,2.4c0.2,0.6,0.5,1.1,0.7,1.7c0.4,1,0.7,2,1.1,3
		c0,0,0,0.1,0.1,0.1c0.8-3.4,0.7-7-0.1-10.4c-1.7-6.9-6.2-12.8-11.2-17.8c-4.2-4.2-8.9-8-14.3-10.4c-3.6-1.6-7.6-2.5-11.5-2.5
		C29.4,61.2,27.4,61.5,25.5,62"/>
	<path class="st2" d="M10,85.8c0.7,4.4,2.7,8.5,5.2,12.3c3.1,4.7,7,8.8,11.4,12.3c4.9,3.9,10.5,7,16.6,8c6.1,1,12.8-0.3,17.6-4.2
		c0.4-0.3,0.7-0.6,0.9-1.1c0.2-0.5,0-1.1-0.2-1.6c-2.5-6.8-8.8-11.6-15.3-14.9c-6.5-3.4-13.5-5.8-19.4-10c-3.6-2.5-6.7-6-8.6-9.9
		c-1.3-1.6-2.5-3.2-3.7-4.8c-0.3-0.4-0.6-0.8-0.8-1.3C10.7,75,9.2,80.5,10,85.8"/>
	<path class="st2" d="M62.9,109.9c0-0.1,0-0.2-0.1-0.3c-0.2-1-0.5-1.9-0.8-2.9c-0.2-0.5-0.5-1.1-0.8-1.6c-0.3-0.7-0.6-1.5-1-2.1
		c-0.4-0.7-0.9-1.5-1.3-2.2c-0.3-0.5-0.6-1.1-1-1.6c-0.3-0.3-0.5-0.5-0.8-0.8c-0.2-0.1-0.4-0.3-0.6-0.4
		C59.5,101.4,61.7,105.5,62.9,109.9"/>
	<path class="st2" d="M109.7,62.1c-6.6,1.2-12.6,4.9-17.9,9.1c-6.1,5-11.7,11.1-14.3,18.6c-2.2,6.4-1.8,13.9,1.7,19.6
		c0.5-0.9,1-1.9,1.5-2.8c0.4-0.8,0.9-1.5,1.4-2.2c0.4-0.6,0.7-1.1,1.1-1.7c0.6-0.8,1.1-1.6,1.7-2.4c2.2-3,4.7-5.7,7.6-8.1
		c1-0.8,2-1.6,3-2.3c0.7-0.5,1.5-1,2.2-1.5c1.1-0.8,2.2-1.4,3.4-2c1.9-1.1,3.9-2.1,5.9-3.1c0-0.1,0-0.2,0.1-0.3
		c0.2-0.8,0.7-1.4,1.4-1.8c1.7-1.2,3.4-2.4,5.1-3.6c2.8-2.2,5.2-4.9,7.6-7.6c1.4-1.6,2.8-3.3,4.2-5c-3.3-2.1-7.3-3.1-11.3-3.1
		C112.6,61.7,111.1,61.8,109.7,62.1"/>
	<path class="st2" d="M129.5,70.7c0.4-0.4,0.8-0.8,1.1-1.2c-0.2-0.2-0.4-0.4-0.7-0.6C129.9,69.5,129.7,70.1,129.5,70.7"/>
	<path class="st2" d="M131.5,77.2c-2.5,2.1-5.3,3.9-8.3,5.3c-1.9,2.2-4.1,4.2-6.6,5.9c-6.9,4.6-15.4,6.3-22.4,10.8
		c-0.5,0.3-1,0.6-1.4,1c-0.9,0.9-1.7,1.9-2.4,2.8c-0.8,1.2-1.7,2.3-2.5,3.6c-1.4,2.3-2.8,4.5-3.9,6.9c-0.1,0.2-0.2,0.5-0.3,0.7
		c4,3.5,9.5,5,14.9,4.7c5.9-0.3,11.6-2.8,16.6-6.1c5.4-3.5,10.1-8.1,13.8-13.3c3.2-4.5,5.8-9.8,6.3-15.3c0.3-3.1-0.1-6.4-1.3-9.3
		C133.3,75.7,132.4,76.4,131.5,77.2"/>
	<path class="st1" d="M72.3,131.6c0.3,0.7,1.4,0.3,2-0.2c0.1,0,0.1-0.1,0.2-0.1c0,0-0.1-0.1-0.1-0.1c-0.5-0.3-0.9-0.6-1.4-0.9
		c0,0,0,0,0,0C72.5,130.6,72.1,131.1,72.3,131.6"/>
	<path class="st1" d="M65.3,131.5c-0.7,0.3-1.4,0.6-2.1,0.9c-0.2,0.3-0.4,0.6-0.6,0.9c-0.5,1.1-0.5,2.3-0.5,3.4
		c-0.1,4.6-0.2,9.2-0.3,13.8c-1.7-0.9-3.1-2.3-4.8-3.2c-1.7-0.8-4.1-1-5.3,0.5c-1.7,1.9-0.3,4.9,1,7c2,3.2,4.1,6.3,6.1,9.5
		c1.4,1,2.7,2,4.1,2.9c-0.4-0.6-0.8-1.3-1.3-1.9c-2.7-4.2-5.5-8.5-8.1-12.7c-0.7-1.1-1.3-2.4-0.6-3.5c1-1.4,3.2-0.5,4.6,0.6
		c2.1,1.6,4.3,3.3,6.4,4.9c0-5.9,0-11.7,0-17.6c0-2,0.5-4.5,2.5-4.7c2.1-0.2,2.9,2.8,2.9,4.9c0,5.6,0,11.2,0,16.8
		c1.5-0.2,2-2.1,2-3.6c-0.1-1.5-0.4-3.2,0.4-4.4c1.1-1.6,3.9-1.2,4.6,0.5c0.4,1,0.1,2.2,0.2,3.3c0,1.1,0.7,2.4,1.9,2.4
		c-0.2-1.5-0.2-3,0.6-4.3c0.8-1.2,2.7-1.8,3.8-0.8c1.8,1.5,0.1,4.9,1.7,6.6c1.4-0.5,1.5-2.7,2.9-3.4c1.1-0.6,2.6,0.1,3.2,1.1
		c0.7,1.1,0.7,2.4,0.7,3.7c0,0.1,0,0.1,0,0.2c0.5-0.4,1.1-0.8,1.7-1.2c-0.1-1.5-0.5-3-1.4-4.2c-1.3-1.6-4.1-2.2-5.4-0.6
		c-0.5-2.8-3.6-4.8-6.3-4.1c-1.5,0.4-2.8-0.7-4.1-1.5c-1.3-0.8-3.3-1-4,0.4c-1.7-3.7,0.9-8.9-1.8-12c-0.8-0.9-1.9-1.3-3.1-1.3
		C66.3,131.1,65.8,131.3,65.3,131.5"/>
	<path class="st1" d="M58,137.2c-0.8,0.1-1.5,0.3-2.3,0.4c-0.5,0.6-1,1.1-1.5,1.7c-0.1,0.1-0.2,0.3-0.3,0.4c1.7-0.4,3.4-0.8,5.1-1.2
		c0.3-0.1,0.5-0.1,0.7-0.3c0.3-0.3,0-0.9-0.4-1.1c-0.2-0.1-0.4-0.1-0.5-0.1C58.5,137.1,58.2,137.2,58,137.2"/>
	<path class="st1" d="M74.5,137.3c-0.4,0.2-0.7,0.8-0.5,1.1c0.1,0.2,0.4,0.3,0.6,0.3c2,0.6,4,1,6.1,1.3c-0.3-0.3-0.6-0.7-0.9-1.1
		c-0.2-0.3-0.4-0.6-0.5-0.9c-0.1,0-0.2,0-0.2-0.1c-1.1-0.2-2.2-0.5-3.2-0.7c-0.3-0.1-0.6-0.1-0.9-0.1
		C74.9,137.2,74.7,137.2,74.5,137.3"/>
	<path class="st1" d="M60.1,8.3c-8.3,6.3-11,17.6-11,28.1c0,7.3,1.1,14.9,4.9,21.2c3.8,6.3,10.7,11,18,10.6
		c-4.6-6.5-6.3-15-4.6-22.8c1.3-6.1,4.6-11.6,6.5-17.6c2.3-7.3,2.6-15.3,0.6-22.7c6.2,7.2,6.8,18,3.8,27c-1.6,4.9-4.1,9.4-5.6,14.3
		c-2,6.6-2,13.8,0,20.4c0.1,0.5,0.3,0.9,0.7,1.3c0.5,0.4,1.2,0.5,1.8,0.5c6.9-0.1,13.2-4.4,17-10.2c3.8-5.8,5.2-12.7,5.6-19.6
		c0.3-5.8,0-11.6-1.8-17.1C94,16.1,90.7,11,85.9,7.7c-3.6-2.5-8-3.7-12.4-3.7C68.7,3.9,63.9,5.4,60.1,8.3"/>
	<path class="st1" d="M26.5,59.5c-9.8,2.7-16.8,13.3-15.2,23.4c0.7,4.4,2.7,8.4,5.2,12.1c3.1,4.6,6.9,8.7,11.2,12.1
		C32.4,111,37.9,114,44,115c6,1,12.6-0.2,17.3-4.1c0.4-0.3,0.7-0.6,0.9-1.1c0.2-0.5,0-1.1-0.2-1.6c-2.5-6.7-8.7-11.4-15.1-14.7
		c-6.4-3.3-13.3-5.7-19.1-9.9c-5.8-4.2-10.6-10.8-10.1-18C21,71.8,26,76.9,32,80.3c6.1,3.5,13.2,5.3,19.1,9.2
		c6.4,4.3,11.1,11.2,12.6,18.8c5.3-4.6,6.8-12.5,5.1-19.3c-1.7-6.8-6.1-12.6-11-17.6c-4.1-4.1-8.8-7.9-14.1-10.2
		c-3.6-1.6-7.5-2.5-11.3-2.5C30.3,58.7,28.4,59,26.5,59.5"/>
	<path class="st1" d="M109.4,59.6c-6.5,1.2-12.4,4.8-17.6,9c-6.1,4.9-11.5,10.9-14,18.3c-2.5,7.4-1.6,16.2,3.7,21.9
		c1.9-8,7-15.1,14-19.4c5.7-3.5,12.4-5.2,18.2-8.4c6.1-3.4,11.3-8.5,14.7-14.6c0.3-0.5-0.1-1.1-0.5-1.6c-3.6-3.8-8.9-5.5-14.1-5.5
		C112.2,59.2,110.8,59.3,109.4,59.6"/>
	<path class="st1" d="M116.3,85.4c-6.8,4.5-15.2,6.2-22,10.7c-5.1,3.3-9.2,8-11.7,13.5c3.9,4.3,10.1,6.3,15.9,5.9
		c5.8-0.3,11.4-2.7,16.3-6c5.3-3.5,9.9-8,13.6-13.1c3.2-4.5,5.7-9.6,6.2-15.1c0.5-5.5-1.2-11.3-5.2-15C127.7,74,122.9,81,116.3,85.4
		"/>
</g>
</svg>
