<svg xmlns="http://www.w3.org/2000/svg" viewBox="0 0 249.75 204.62"><defs><style>.cls-1,.cls-2,.cls-5{fill:none;stroke:#fff;}.cls-1,.cls-2{stroke-linecap:round;stroke-linejoin:round;}.cls-2{stroke-width:2.5px;}.cls-11,.cls-13,.cls-3,.cls-4,.cls-6,.cls-7{fill:#fff;}.cls-4{font-size:12.19px;font-family:Montserrat-Medium, Montserrat;font-weight:500;}.cls-5{stroke-miterlimit:10;}.cls-6{font-size:8.06px;letter-spacing:0.25em;}.cls-11,.cls-6,.cls-7{font-family:Montserrat-Light, Montserrat;font-weight:300;}.cls-11,.cls-7{font-size:5.86px;}.cls-7{letter-spacing:0.25em;}.cls-8{letter-spacing:0.24em;}.cls-9{letter-spacing:0.22em;}.cls-10{letter-spacing:0.25em;}.cls-11{letter-spacing:0.22em;}.cls-12{letter-spacing:0.22em;}.cls-13{font-size:51px;font-family:Nord-Regular, Nord;letter-spacing:0.01em;}</style></defs><title>vector_header-01</title><g id="Objects"><path class="cls-1" d="M222,74.32a101.1,101.1,0,0,0-194.27,0"/><path class="cls-1" d="M27.74,130.3a101.1,101.1,0,0,0,194.27,0"/><path class="cls-2" d="M201.81,131.54a82.93,82.93,0,0,1-19.58,29.74"/><path class="cls-2" d="M67.39,161.16a82.92,82.92,0,0,1-19.48-29.69"/><path class="cls-3" d="M64.63,161.28A2.77,2.77,0,1,1,67.39,164,2.76,2.76,0,0,1,64.63,161.28Z"/><path class="cls-3" d="M25,102.31a2.76,2.76,0,1,1,2.76,2.76A2.76,2.76,0,0,1,25,102.31Z"/><path class="cls-3" d="M219.25,102.31a2.76,2.76,0,1,1,2.76,2.76A2.77,2.77,0,0,1,219.25,102.31Z"/><path class="cls-3" d="M179.47,161.28a2.76,2.76,0,1,1,2.76,2.76A2.76,2.76,0,0,1,179.47,161.28Z"/><text class="cls-4" transform="translate(96.14 184.3) rotate(16.02)">B</text><text class="cls-4" transform="translate(108.79 187.66) rotate(7.13)">O</text><text class="cls-4" transform="translate(122.41 189.04) rotate(-1.05)">X</text><text class="cls-4" transform="matrix(0.99, -0.15, 0.15, 0.99, 134.04, 188.6)">E</text><text class="cls-4" transform="translate(145.74 186.57) rotate(-16.16)">S</text><text class="cls-4" transform="translate(68.38 49.74) rotate(-44.25)">S</text><text class="cls-4" transform="matrix(0.81, -0.59, 0.59, 0.81, 75.86, 42.62)">U</text><text class="cls-4" transform="translate(86.04 35.54) rotate(-26.85)">B</text><text class="cls-4" transform="translate(96.86 30.36) rotate(-18.51)">S</text><text class="cls-4" transform="matrix(0.98, -0.18, 0.18, 0.98, 106.7, 27.23)">C</text><text class="cls-4" transform="translate(118.12 25.36) rotate(-1.71)">R</text><text class="cls-4" transform="translate(129.8 25.33) rotate(5.02)">I</text><text class="cls-4" transform="translate(136.38 25.92) rotate(11.82)">P</text><text class="cls-4" transform="translate(147.27 28.42) rotate(19.57)">T</text><text class="cls-4" transform="translate(156.6 32) rotate(25.78)">I</text><text class="cls-4" transform="translate(162.56 34.85) rotate(33.08)">O</text><text class="cls-4" transform="matrix(0.74, 0.68, -0.68, 0.74, 173.29, 42.12)">N</text><path class="cls-1" d="M182.76,74.47a64.24,64.24,0,0,0-115.7-.15"/><path class="cls-1" d="M67.06,130.3a64.24,64.24,0,0,0,115.63,0"/><path class="cls-1" d="M176.07,130.3a58.33,58.33,0,0,1-102.39,0"/><path class="cls-1" d="M73.68,74.32a58.34,58.34,0,0,1,102.39,0"/><line class="cls-5" x1="124.88" y1="38.09" x2="124.88" y2="43.96"/><line class="cls-5" x1="113.72" y1="39.1" x2="114.74" y2="44.87"/><line class="cls-5" x1="102.92" y1="42.02" x2="104.92" y2="47.53"/><line class="cls-5" x1="92.78" y1="46.78" x2="95.71" y2="51.86"/><line class="cls-5" x1="83.63" y1="53.22" x2="87.39" y2="57.72"/><line class="cls-5" x1="75.73" y1="61.16" x2="80.22" y2="64.93"/><line class="cls-5" x1="69.33" y1="70.35" x2="74.41" y2="73.28"/><line class="cls-5" x1="69.49" y1="134.58" x2="74.57" y2="131.65"/><line class="cls-5" x1="75.93" y1="143.74" x2="80.43" y2="139.97"/><line class="cls-5" x1="83.87" y1="151.63" x2="87.64" y2="147.14"/><line class="cls-5" x1="93.06" y1="158.03" x2="95.99" y2="152.95"/><line class="cls-5" x1="103.22" y1="162.74" x2="105.22" y2="157.23"/><line class="cls-5" x1="114.04" y1="165.61" x2="115.06" y2="159.84"/><line class="cls-5" x1="125.2" y1="166.56" x2="125.2" y2="160.69"/><line class="cls-5" x1="136.35" y1="165.55" x2="135.33" y2="159.78"/><line class="cls-5" x1="147.15" y1="162.63" x2="145.15" y2="157.12"/><line class="cls-5" x1="157.29" y1="157.87" x2="154.36" y2="152.79"/><line class="cls-5" x1="166.44" y1="151.43" x2="162.68" y2="146.94"/><line class="cls-5" x1="174.34" y1="143.49" x2="169.85" y2="139.72"/><line class="cls-5" x1="180.74" y1="134.3" x2="175.66" y2="131.37"/><line class="cls-5" x1="180.58" y1="70.07" x2="175.5" y2="73"/><line class="cls-5" x1="174.14" y1="60.92" x2="169.65" y2="64.68"/><line class="cls-5" x1="166.2" y1="53.02" x2="162.43" y2="57.51"/><line class="cls-5" x1="157.01" y1="46.62" x2="154.08" y2="51.7"/><line class="cls-5" x1="146.85" y1="41.91" x2="144.85" y2="47.42"/><line class="cls-5" x1="136.03" y1="39.04" x2="135.01" y2="44.82"/><text class="cls-6" transform="translate(108.44 145.77)">CHILE</text><path class="cls-1" d="M131.81,60.12c-.22,4.53-3.5,8.06-7.33,7.88s-6.76-4-6.54-8.56,3.5-8.06,7.33-7.88S132,55.58,131.81,60.12Z"/><path class="cls-1" d="M126.09,51.66a7.29,7.29,0,0,1-.68,8.15,8.48,8.48,0,0,0-1.5,8.13"/><text class="cls-7" transform="translate(96.86 63.04)">E<tspan class="cls-8" x="5.39" y="0">S</tspan><tspan class="cls-9" x="10.37" y="0">T</tspan><tspan class="cls-10" x="14.95" y="0">.</tspan></text><text class="cls-11" transform="translate(137.09 63.04)">2<tspan class="cls-9" x="4.57" y="0">0</tspan><tspan x="9.71" y="0">2</tspan><tspan class="cls-12" x="14.28" y="0">0</tspan></text><path class="cls-1" d="M248.5,102.38a13.78,13.78,0,0,0-13.79,13.79v9.26a4.87,4.87,0,0,1-4.87,4.87H19.9A4.86,4.86,0,0,1,15,125.44v-9.27A13.78,13.78,0,0,0,1.25,102.38v-.56A13.78,13.78,0,0,0,15,88V79.19a4.86,4.86,0,0,1,4.86-4.86H229.81a4.9,4.9,0,0,1,4.9,4.9V88a13.78,13.78,0,0,0,13.79,13.79Z"/><text class="cls-13" transform="translate(41.14 118.77)">COFFEE NEST</text></g></svg>